<svg id='Pencil_Write_24' width='24' height='24' viewBox='0 0 24 24' xmlns='http://www.w3.org/2000/svg' xmlns:xlink='http://www.w3.org/1999/xlink'><rect width='24' height='24' stroke='none' fill='#000000' opacity='0'/>


<g transform="matrix(0.83 0 0 0.83 12 12)" >
<g style="" >
<g transform="matrix(1 0 0 1 -2 1)" >
<path style="stroke: rgb(0,0,0); stroke-width: 1; stroke-dasharray: none; stroke-linecap: round; stroke-dashoffset: 0; stroke-linejoin: round; stroke-miterlimit: 4; fill: none; fill-rule: nonzero; opacity: 1;" transform=" translate(-10, -13)" d="M 19.5 10 L 19.5 21.5 C 19.5 22.604569499661586 18.604569499661586 23.5 17.5 23.5 L 2.5 23.5 C 1.395430500338413 23.5 0.5 22.604569499661586 0.5 21.5 L 0.5 4.5 C 0.5 3.395430500338413 1.395430500338413 2.5 2.5 2.5 L 15.5 2.5" stroke-linecap="round" />
</g>
<g transform="matrix(1 0 0 1 3.64 -3.64)" >
<path style="stroke: rgb(0,0,0); stroke-width: 1; stroke-dasharray: none; stroke-linecap: round; stroke-dashoffset: 0; stroke-linejoin: round; stroke-miterlimit: 4; fill: none; fill-rule: nonzero; opacity: 1;" transform=" translate(-15.64, -8.36)" d="M 12.808 13.314 L 9.272 14.728 L 10.686 11.192 L 19.879 2 L 22 4.121 L 12.808 13.314 z" stroke-linecap="round" />
</g>
<g transform="matrix(1 0 0 1 9.69 -9.69)" >
<path style="stroke: rgb(0,0,0); stroke-width: 1; stroke-dasharray: none; stroke-linecap: round; stroke-dashoffset: 0; stroke-linejoin: round; stroke-miterlimit: 4; fill: none; fill-rule: nonzero; opacity: 1;" transform=" translate(-21.69, -2.31)" d="M 22 4.121 L 19.879 2 L 20.939 0.939 C 21.524974119570473 0.35302588042952787 22.475025880429527 0.35302588042952765 23.061 0.9389999999999995 C 23.646974119570473 1.5249741195704714 23.646974119570473 2.475025880429528 23.061 3.061 Z" stroke-linecap="round" />
</g>
</g>
</g>
</svg>